PathFileType	4	(X/Y/Z)	C:/Users/opensim2020/Desktop/walking_exp_matlab/subject02_walking07_straight_03.trc	
DataRate	CameraRate	NumFrames	NumMarkers	Units	OrigDataRate	OrigDataStartFrame	OrigNumFrames	
100.00	100.00	8	50	mm	100.00	2069	203	
Frame#	Time	LFHD			RFHD			LBHD			RBHD			C7			T10			CLAV			STRN			RBAK			LSHO			LUPA			LELB			LFRM			LWRA			LWRB			LFIN			RSHO			RUPA			RELB			RFRM			RWRA			RWRB			RFIN			LASI			RASI			LPSI			RPSI			LTHI			LKNE			LTIB			LANK			LHEE			LTOE			RTHI			RKNE			RTIB			RANK			RHEE			RTOE			*39			*40			*41			*42			*43			*44			*45			*46			*47			*48			*49			
		X1	Y1	Z1	X2	Y2	Z2	X3	Y3	Z3	X4	Y4	Z4	X5	Y5	Z5	X6	Y6	Z6	X7	Y7	Z7	X8	Y8	Z8	X9	Y9	Z9	X10	Y10	Z10	X11	Y11	Z11	X12	Y12	Z12	X13	Y13	Z13	X14	Y14	Z14	X15	Y15	Z15	X16	Y16	Z16	X17	Y17	Z17	X18	Y18	Z18	X19	Y19	Z19	X20	Y20	Z20	X21	Y21	Z21	X22	Y22	Z22	X23	Y23	Z23	X24	Y24	Z24	X25	Y25	Z25	X26	Y26	Z26	X27	Y27	Z27	X28	Y28	Z28	X29	Y29	Z29	X30	Y30	Z30	X31	Y31	Z31	X32	Y32	Z32	X33	Y33	Z33	X34	Y34	Z34	X35	Y35	Z35	X36	Y36	Z36	X37	Y37	Z37	X38	Y38	Z38	X39	Y39	Z39	X40	Y40	Z40	X41	Y41	Z41	X42	Y42	Z42	X43	Y43	Z43	X44	Y44	Z44	X45	Y45	Z45	X46	Y46	Z46	X47	Y47	Z47	X48	Y48	Z48	X49	Y49	Z49	X50	Y50	Z50	

77	0.760	1317.05017	-170.68279	1749.32202	1459.75269	-162.39990	1728.32971	1307.84863	-271.47260	1637.03467	1449.54346	-274.39203	1610.96130	1366.26514	-297.91653	1509.08398	1370.41602	-351.49475	1238.23352	1367.98694	-157.17000	1446.73669	1381.63184	-106.12133	1272.77832	1423.35168	-361.67172	1339.14551	1195.20679	-206.38982	1490.62964	1097.64209	-149.16733	1309.54919	1071.51379	-81.68481	1185.31885	1066.86914	16.13930	1092.39600	1109.29321	136.65999	1041.30249	1074.92920	104.93310	1009.13947	1073.62500	164.37004	979.89392	1558.00500	-236.76054	1477.62842	1638.89270	-297.40762	1297.34961	1670.65417	-301.04016	1154.20850	1705.90942	-287.16733	1038.29089	1704.91833	-248.14938	906.14172	1729.59924	-299.03848	910.06036	1741.80457	-270.23157	843.57892	1252.18896	-126.27299	974.21661	1506.74646	-130.67412	965.21094	1329.41785	-337.04208	1019.92157	1443.36072	-343.94223	1016.64642	1206.54810	-235.76991	667.59198	1239.54883	-302.50601	473.01172	1243.13013	-391.80054	298.30139	1282.11169	-421.28726	74.85662	1334.09973	-458.23535	48.60097	1264.37122	-268.12585	30.95513	1584.30054	-153.99280	664.19836	1551.41711	-78.41138	469.64832	1564.26526	-49.63758	286.29266	1543.34021	16.78603	100.75546	1484.66223	16.49928	39.97928	1578.77527	176.40038	95.01323	1409.78735	-286.24655	1776.48999	-3360.21313	2845.10889	1033.97278																											 
78	0.770	1318.84607	-161.90094	1747.77563	1461.56079	-153.52122	1726.76184	1309.56506	-262.73477	1635.46851	1451.15417	-265.70969	1609.31995	1367.98083	-289.25253	1507.42920	1371.85352	-342.44846	1236.54700	1369.75562	-148.28905	1445.17957	1383.22510	-97.05822	1271.33887	1424.84875	-352.61536	1337.11926	1196.85925	-197.67706	1489.11426	1099.36780	-140.44966	1307.92053	1072.84314	-73.15897	1183.75171	1068.32031	25.45082	1091.41589	1110.40930	146.35454	1041.38733	1076.19568	114.42414	1008.81903	1074.85840	174.33449	980.05054	1560.08423	-227.97073	1475.77917	1640.43408	-288.68970	1295.31787	1671.87915	-292.77151	1152.29724	1706.82190	-279.42737	1036.12646	1705.91846	-241.23596	903.75494	1730.53857	-292.07019	908.00385	1742.37830	-263.71164	841.17401	1252.80225	-117.42201	972.50262	1507.42114	-121.08321	963.42902	1331.08875	-328.03467	1018.38580	1445.10046	-334.60910	1015.04346	1207.21289	-229.14375	666.60590	1240.01135	-297.21909	472.59839	1243.51416	-388.67886	298.95273	1282.09741	-420.90176	75.83237	1333.97754	-458.35306	50.24207	1264.14087	-267.92673	30.94000	1584.31812	-144.89609	662.31940	1551.03369	-67.55301	468.42612	1564.08801	-36.44860	285.66190	1542.65930	32.03479	100.57936	1484.66675	32.34664	40.07782	1577.36865	192.16571	96.70885	1411.69836	-277.35025	1774.96606	-3360.24512	2845.15625	1034.06873																											 
79	0.780	1320.78723	-153.06177	1746.26550	1463.49500	-144.62297	1725.27136	1311.53906	-254.01379	1633.95605	1453.23682	-256.52380	1608.00635	1369.87000	-280.28186	1505.77466	1373.45728	-333.30273	1234.89661	1371.57605	-139.34578	1443.65381	1384.82190	-87.93644	1269.86938	1426.14807	-343.58511	1335.01196	1198.66101	-188.85654	1487.66077	1101.09949	-132.21068	1306.26990	1074.62024	-64.66019	1182.16113	1069.55713	33.84024	1090.38049	1111.87964	155.44824	1040.80750	1077.89148	123.87383	1008.00916	1076.25574	183.65230	979.58569	1561.99609	-219.35609	1473.87561	1641.66785	-280.26062	1293.04077	1673.37744	-284.02823	1150.30884	1707.97607	-271.43048	1033.98169	1706.95215	-233.87772	901.33997	1731.67627	-284.60022	905.97876	1743.38928	-256.84451	838.88397	1253.46680	-108.43641	970.91144	1508.14417	-111.29668	961.63586	1332.89453	-318.88293	1016.82568	1446.99133	-325.11325	1013.49164	1207.90479	-222.56134	666.08020	1240.43396	-291.59598	472.18738	1243.94507	-385.27145	299.75293	1281.98669	-420.39682	76.92097	1333.89368	-458.12656	51.75187	1264.01282	-267.82675	30.86578	1584.78296	-134.88954	660.71417	1551.19934	-55.62533	467.70859	1563.99438	-23.82734	284.92395	1542.01782	45.37405	100.35825	1483.57312	45.43937	39.63187	1575.94836	205.50618	96.81886	1413.68677	-268.50549	1773.45337	-3357.37427	2845.90625	1034.04675																											 
80	0.790	1322.87512	-144.20505	1744.79150	1465.57666	-135.67378	1723.85095	1313.68689	-245.08493	1632.46521	1455.37988	-247.59807	1606.53284	1371.88452	-271.38992	1504.22937	1375.15149	-324.01740	1233.22595	1373.58118	-130.29088	1442.13989	1386.56946	-78.63456	1268.48645	1428.13562	-334.46472	1333.44751	1200.54529	-180.03110	1486.19788	1102.96570	-123.94585	1304.47668	1076.25842	-56.69616	1180.19666	1071.26794	42.03232	1088.78589	1113.10486	164.13957	1039.90088	1079.67139	132.69194	1006.84204	1077.97485	192.36436	978.57050	1564.17664	-210.69157	1472.12244	1643.44714	-271.28073	1291.02698	1674.59998	-275.10760	1148.13000	1709.10706	-263.11459	1031.85315	1708.16553	-226.18642	899.05273	1732.61243	-277.05673	903.81964	1744.44238	-249.68251	836.69092	1254.03162	-99.35494	969.31671	1508.99646	-101.28233	959.93024	1334.75256	-309.58313	1015.24701	1448.97034	-315.52243	1012.01172	1208.53162	-215.36081	665.10870	1240.84497	-285.60315	471.75812	1244.14429	-381.71445	300.54855	1281.71790	-419.83011	78.14878	1333.78772	-457.69077	53.65533	1263.83521	-267.82410	30.88120	1585.73010	-123.41656	659.78510	1551.40393	-43.44525	466.82120	1563.95789	-11.75838	284.09570	1540.62524	56.07371	99.35480	1481.85535	55.99426	38.78018	1574.09827	216.30415	94.86917	1415.57593	-259.71967	1771.83240	-3360.27759	2845.14722	1034.05811																											 
81	0.800	1324.98401	-135.37192	1743.41870	1467.68298	-126.73461	1722.51086	1315.93604	-236.26579	1631.03870	1457.80530	-238.68567	1605.09277	1374.06055	-262.18912	1502.66638	1376.99695	-314.59470	1231.64795	1375.63477	-121.18697	1440.73999	1388.40503	-69.32837	1267.15088	1430.01733	-325.25989	1331.69800	1202.54236	-171.09302	1484.79321	1104.82300	-116.08836	1302.71155	1078.33337	-48.79351	1178.30371	1073.05017	49.68195	1086.88428	1114.64746	172.18835	1038.29260	1081.39575	140.41173	1004.96484	1079.57361	200.30737	976.82715	1566.17944	-201.98984	1470.16150	1645.12854	-262.29684	1288.93262	1675.71082	-266.17365	1145.73511	1710.24500	-254.68773	1029.54517	1709.40894	-218.19174	896.85455	1733.80237	-269.05209	901.76556	1745.50049	-241.97253	834.36816	1254.83704	-89.87283	967.99817	1509.98828	-91.00203	958.37018	1336.74158	-300.06720	1013.65033	1450.97229	-305.71228	1010.54584	1209.32361	-207.87784	664.08533	1241.33374	-279.22488	471.28952	1244.39319	-377.66711	301.41364	1281.34741	-419.22281	79.57571	1333.30237	-457.40186	55.48843	1263.69971	-267.80750	30.92734	1587.35657	-110.78532	659.19525	1552.28223	-30.46031	466.55273	1563.70056	-0.46799	283.08987	1539.44751	65.10702	98.11938	1480.22620	63.59123	37.73590	1572.00256	225.04085	91.43726	1417.71826	-250.79099	1770.34839	-3360.21313	2845.10889	1033.97266																											 
82	0.810	1327.09143	-126.60641	1742.01819	1469.95178	-117.80251	1721.23389	1318.28369	-227.33467	1629.66333	1460.13550	-229.62570	1603.74927	1376.25354	-253.35147	1501.27612	1379.01001	-305.09070	1230.14673	1377.78833	-112.06087	1439.39978	1390.24768	-59.88783	1265.93018	1432.05432	-315.90918	1329.99231	1204.63049	-162.06662	1483.45374	1106.95605	-108.37333	1301.01367	1080.47827	-41.29349	1176.26282	1075.09802	57.19064	1084.58923	1116.35632	179.69849	1036.16333	1083.44238	147.75507	1002.71979	1081.39148	207.60275	974.52606	1568.12354	-193.26929	1468.27576	1646.62170	-253.28951	1286.71973	1677.19202	-256.89471	1143.80798	1711.56616	-245.81250	1027.46008	1710.72302	-209.71117	894.51569	1735.05701	-260.64383	899.76056	1746.73145	-233.97881	832.21948	1256.03833	-80.95589	966.39258	1511.19299	-80.49483	956.95166	1338.89478	-290.40909	1012.15686	1453.01697	-295.80048	1009.17487	1210.22498	-200.21490	663.27063	1241.88306	-272.49826	470.86166	1244.54504	-373.48065	302.47607	1280.95386	-418.51672	81.03048	1332.90491	-456.96915	57.65339	1263.53064	-267.73532	30.89448	1588.76013	-97.65231	658.61047	1553.21362	-17.83553	466.04572	1563.62537	9.73378	281.90414	1537.88452	72.20461	96.13956	1478.53467	69.57952	36.08165	1569.85242	231.98180	87.09647	1420.07385	-241.94116	1769.03247	-3360.26733	2845.32593	1033.82043																											 
83	0.820	1329.47156	-117.66327	1740.78467	1472.29504	-108.79126	1720.07178	1320.62329	-218.46716	1628.34204	1462.57324	-220.57423	1602.48499	1378.61060	-244.20924	1499.93188	1381.17102	-295.47211	1228.66821	1380.06799	-102.88122	1438.16125	1392.15015	-50.37461	1264.81592	1434.22986	-306.46875	1328.40051	1206.81519	-152.97733	1482.16565	1109.43494	-100.05991	1299.30310	1082.73767	-34.07017	1174.10083	1077.37708	64.60293	1082.25598	1118.57715	186.49283	1033.46106	1085.47156	154.53574	1000.00372	1083.44592	214.39067	971.87036	1570.54614	-184.20613	1466.58154	1648.72754	-243.66394	1284.79187	1679.05688	-247.22890	1141.98047	1713.19507	-236.46315	1025.58887	1712.17700	-200.92145	892.43970	1736.50366	-251.75108	897.84924	1748.09680	-225.49634	830.13971	1257.16589	-71.33784	965.04858	1512.61829	-69.65663	955.77209	1341.16638	-280.48947	1010.58984	1455.15979	-285.68420	1007.84906	1211.21387	-192.18781	662.34479	1242.48645	-265.37729	470.45624	1244.80457	-368.92435	303.59296	1280.59631	-417.78387	82.96252	1332.46692	-456.44153	60.05029	1263.29297	-267.61160	30.87003	1591.31836	-82.49849	658.97083	1554.25110	-5.52561	465.27032	1563.60608	18.89736	280.58038	1536.30725	77.94581	93.96982	1476.58313	73.99911	34.35950	1567.76074	237.43332	82.17594	1422.52393	-233.02563	1767.78345	-3360.22925	2845.27783	1033.99426																											 
84	0.830	1331.95142	-108.79586	1739.67029	1474.77490	-99.81261	1718.95483	1323.23816	-209.50684	1627.16174	1464.87903	-211.72528	1601.23645	1381.17065	-234.93759	1498.66577	1383.47119	-285.75314	1227.21130	1382.43811	-93.61086	1437.04761	1394.09668	-40.77499	1263.82739	1436.55054	-296.90039	1326.77002	1209.12659	-143.81410	1480.94727	1111.82336	-92.41935	1297.52734	1085.15649	-27.11344	1171.97095	1079.46472	70.53259	1079.48804	1120.31384	192.92802	1030.31287	1087.96997	160.81339	996.72736	1085.40820	220.30023	968.35736	1573.34290	-174.60225	1465.18872	1650.76306	-234.03046	1282.83911	1680.37329	-237.55728	1139.82776	1714.51013	-227.09268	1023.49463	1713.67224	-191.68755	890.36792	1737.86853	-242.59877	895.96533	1749.47729	-216.58679	828.13574	1258.57996	-61.60598	963.72272	1514.23792	-58.61890	954.80847	1343.58350	-270.38702	1009.08563	1457.39575	-275.35526	1006.51154	1212.36157	-183.80870	661.51514	1243.22754	-257.88351	470.02969	1245.12964	-364.13470	304.94058	1280.18677	-416.74500	84.97737	1332.01624	-455.99051	63.00105	1263.17212	-267.45230	30.87414	1593.60132	-67.44933	659.03162	1555.51599	6.31878	464.40836	1563.54431	27.29088	278.90070	1534.37024	82.17908	91.23913	1474.45374	77.30762	32.01807	1565.56140	241.30959	76.55273	1425.00061	-224.08940	1766.54871	-3360.18994	2845.22876	1034.18945																											 
